<svg width="188" height="143" viewBox="0 0 188 143" fill="none" xmlns="http://www.w3.org/2000/svg">
<path d="M25.112 23.25L30.702 34H19.35L15.136 24.411H12.9V34H2.58V1.75H18.834C26.23 1.75 29.928 5.51966 29.928 13.059C29.928 18.219 28.3227 21.616 25.112 23.25ZM15.265 10.006H12.9V16.456H15.265C16.5263 16.456 17.4293 16.327 17.974 16.069C18.5473 15.811 18.834 15.2233 18.834 14.306V12.156C18.834 11.2387 18.5473 10.651 17.974 10.393C17.4293 10.135 16.5263 10.006 15.265 10.006ZM32.7781 17.918C32.7781 14.9653 33.0218 12.4283 33.5091 10.307C34.0251 8.157 34.8708 6.394 36.0461 5.018C37.2501 3.642 38.8268 2.62433 40.7761 1.965C42.7254 1.30567 45.1334 0.976 48.0001 0.976C50.8954 0.976 53.3034 1.30567 55.2241 1.965C57.1734 2.62433 58.7358 3.642 59.9111 5.018C61.1151 6.394 61.9608 8.157 62.4481 10.307C62.9641 12.4283 63.2221 14.9653 63.2221 17.918C63.2221 20.7273 62.9928 23.1927 62.5341 25.314C62.0754 27.4067 61.2584 29.1553 60.0831 30.56C58.9364 31.9647 57.3741 33.0253 55.3961 33.742C53.4468 34.43 50.9814 34.774 48.0001 34.774C45.0188 34.774 42.5391 34.43 40.5611 33.742C38.6118 33.0253 37.0494 31.9647 35.8741 30.56C34.7274 29.1553 33.9248 27.4067 33.4661 25.314C33.0074 23.1927 32.7781 20.7273 32.7781 17.918ZM43.8721 12.543V25.959H48.1721C49.6054 25.959 50.6231 25.8013 51.2251 25.486C51.8558 25.142 52.1711 24.3823 52.1711 23.207V9.791H47.8281C46.4521 9.791 45.4488 9.963 44.8181 10.307C44.1874 10.6223 43.8721 11.3677 43.8721 12.543ZM75.686 28.883L74.525 34H63.646L71.988 1.75H87.941L96.283 34H85.404L84.2 28.883H75.686ZM80.244 11.64H79.685L77.578 20.67H82.308L80.244 11.64ZM112.728 34H98.2802V1.75H112.728C115.624 1.75 118.046 2.051 119.995 2.653C121.945 3.22633 123.507 4.158 124.682 5.448C125.858 6.738 126.689 8.40067 127.176 10.436C127.692 12.4713 127.95 14.9367 127.95 17.832C127.95 20.7273 127.692 23.207 127.176 25.271C126.689 27.3063 125.858 28.969 124.682 30.259C123.507 31.549 121.945 32.495 119.995 33.097C118.046 33.699 115.624 34 112.728 34ZM112.9 10.006H108.6V25.744H112.9C114.334 25.744 115.351 25.5863 115.953 25.271C116.584 24.927 116.899 24.1673 116.899 22.992V12.758C116.899 11.5827 116.584 10.8373 115.953 10.522C115.351 10.178 114.334 10.006 112.9 10.006ZM25.542 55.75V64.006H18.06V88H7.74V64.006H0.258V55.75H25.542ZM26.8152 71.918C26.8152 68.9653 27.0589 66.4283 27.5462 64.307C28.0622 62.157 28.9079 60.394 30.0832 59.018C31.2872 57.642 32.8639 56.6243 34.8132 55.965C36.7625 55.3057 39.1705 54.976 42.0372 54.976C44.9325 54.976 47.3405 55.3057 49.2612 55.965C51.2105 56.6243 52.7729 57.642 53.9482 59.018C55.1522 60.394 55.9979 62.157 56.4852 64.307C57.0012 66.4283 57.2592 68.9653 57.2592 71.918C57.2592 74.7273 57.0299 77.1927 56.5712 79.314C56.1125 81.4067 55.2955 83.1553 54.1202 84.56C52.9735 85.9647 51.4112 87.0253 49.4332 87.742C47.4839 88.43 45.0185 88.774 42.0372 88.774C39.0559 88.774 36.5762 88.43 34.5982 87.742C32.6489 87.0253 31.0865 85.9647 29.9112 84.56C28.7645 83.1553 27.9619 81.4067 27.5032 79.314C27.0445 77.1927 26.8152 74.7273 26.8152 71.918ZM37.9092 66.543V79.959H42.2092C43.6425 79.959 44.6602 79.8013 45.2622 79.486C45.8929 79.142 46.2082 78.3823 46.2082 77.207V63.791H41.8652C40.4892 63.791 39.4859 63.963 38.8552 64.307C38.2245 64.6223 37.9092 65.3677 37.9092 66.543ZM25.112 131.25L30.702 142H19.35L15.136 132.411H12.9V142H2.58V109.75H18.834C26.23 109.75 29.928 113.52 29.928 121.059C29.928 126.219 28.3227 129.616 25.112 131.25ZM15.265 118.006H12.9V124.456H15.265C16.5263 124.456 17.4293 124.327 17.974 124.069C18.5473 123.811 18.834 123.223 18.834 122.306V120.156C18.834 119.239 18.5473 118.651 17.974 118.393C17.4293 118.135 16.5263 118.006 15.265 118.006ZM54.9661 122.349V129.831H44.6461V133.744H57.2881V142H34.3261V109.75H57.0301L55.7401 118.006H44.6461V122.349H54.9661ZM60.373 141.441L61.835 132.927C64.9883 133.701 67.8407 134.088 70.392 134.088C71.682 134.088 72.8143 134.074 73.789 134.045C74.7923 133.988 75.681 133.902 76.455 133.787V131.207L71.811 130.82C69.7183 130.619 67.9697 130.275 66.565 129.788C65.1603 129.301 64.028 128.641 63.168 127.81C62.3367 126.95 61.7347 125.932 61.362 124.757C61.018 123.553 60.846 122.148 60.846 120.543C60.846 118.336 61.0753 116.501 61.534 115.039C61.9927 113.548 62.7237 112.359 63.727 111.47C64.7303 110.553 66.0203 109.908 67.597 109.535C69.2023 109.162 71.1517 108.976 73.445 108.976C78.003 108.976 82.131 109.406 85.829 110.266L84.539 118.522C81.3283 118.006 78.7627 117.748 76.842 117.748C74.9213 117.748 73.2873 117.834 71.94 118.006V120.543L75.638 120.887C77.9027 121.116 79.7947 121.503 81.314 122.048C82.8333 122.564 84.0517 123.252 84.969 124.112C85.915 124.972 86.5743 125.99 86.947 127.165C87.3483 128.34 87.549 129.688 87.549 131.207C87.549 133.386 87.2623 135.22 86.689 136.711C86.1157 138.202 85.4277 139.334 84.625 140.108C83.9657 140.739 83.1487 141.24 82.174 141.613C81.1993 141.957 80.1673 142.215 79.078 142.387C77.9887 142.559 76.885 142.659 75.767 142.688C74.6777 142.745 73.6887 142.774 72.8 142.774C70.564 142.774 68.414 142.659 66.35 142.43C64.286 142.201 62.2937 141.871 60.373 141.441ZM90.6615 109.75H100.981V133.959H104.636C105.955 133.959 106.844 133.787 107.302 133.443C107.79 133.099 108.033 132.354 108.033 131.207V109.75H118.353V127.853C118.353 130.605 118.167 132.927 117.794 134.819C117.45 136.711 116.762 138.259 115.73 139.463C114.727 140.638 113.322 141.484 111.516 142C109.71 142.516 107.374 142.774 104.507 142.774C101.641 142.774 99.3045 142.516 97.4985 142C95.6925 141.484 94.2735 140.638 93.2415 139.463C92.2381 138.288 91.5501 136.754 91.1775 134.862C90.8335 132.941 90.6615 130.605 90.6615 127.853V109.75ZM132.825 126.348L132.223 142H121.43L123.408 109.75H136.867L140.866 126.176H141.253L145.252 109.75H158.754L160.689 142H149.896L149.294 126.348H148.95L144.994 142H137.125L133.126 126.348H132.825ZM185.184 122.349V129.831H174.864V133.744H187.506V142H164.544V109.75H187.248L185.958 118.006H174.864V122.349H185.184Z" fill="#82B4F0"/>
</svg>
